<?xml version="1.0" standalone="no"?>
<!DOCTYPE svg PUBLIC "-//W3C//DTD SVG 20010904//EN"
 "http://www.w3.org/TR/2001/REC-SVG-20010904/DTD/svg10.dtd">
<svg version="1.0" xmlns="http://www.w3.org/2000/svg"
 width="1667.000000pt" height="1667.000000pt" viewBox="0 0 1667.000000 1667.000000"
 preserveAspectRatio="xMidYMid meet">
<metadata>
Created by potrace 1.11, written by Peter Selinger 2001-2013
</metadata>
<g transform="translate(0.000000,1667.000000) scale(0.100000,-0.100000)"
fill="#000000" stroke="none">
<path d="M8068 16416 c-1 -2 -61 -7 -133 -10 -71 -4 -148 -9 -170 -11 -22 -3
-87 -9 -145 -15 -58 -6 -121 -13 -140 -15 -19 -2 -60 -7 -90 -10 -30 -3 -66
-7 -80 -10 -14 -2 -43 -7 -65 -10 -22 -3 -89 -14 -150 -25 -60 -10 -126 -22
-145 -25 -200 -33 -589 -126 -815 -195 -254 -77 -669 -222 -689 -241 -6 -5
-16 -9 -24 -9 -7 0 -32 -8 -55 -19 -23 -10 -107 -47 -187 -82 -279 -122 -638
-308 -915 -474 -249 -149 -558 -362 -805 -554 -94 -72 -371 -303 -410 -342
-14 -13 -65 -60 -114 -103 -233 -211 -514 -508 -775 -821 -265 -319 -599 -808
-803 -1175 -13 -25 -35 -63 -48 -85 -30 -53 -199 -389 -245 -490 -258 -556
-475 -1228 -590 -1830 -15 -80 -64 -376 -70 -424 -4 -30 -8 -61 -10 -70 -1 -9
-6 -50 -10 -91 -4 -41 -8 -77 -10 -80 -2 -3 -6 -43 -10 -90 -3 -47 -8 -101
-10 -120 -26 -248 -26 -989 0 -1250 3 -35 15 -169 20 -225 3 -44 17 -168 20
-186 2 -9 6 -40 10 -70 6 -54 10 -83 20 -137 3 -16 7 -44 9 -63 3 -19 7 -46
10 -59 3 -14 8 -43 11 -65 3 -22 8 -47 10 -55 3 -8 7 -29 9 -45 2 -17 16 -88
31 -160 33 -159 27 -135 65 -285 17 -69 33 -132 35 -141 2 -9 21 -79 44 -155
147 -509 338 -989 573 -1444 138 -267 177 -336 348 -615 113 -184 395 -584
512 -725 16 -19 32 -40 36 -45 17 -24 162 -196 227 -270 129 -147 178 -199
370 -390 185 -185 260 -256 380 -360 32 -27 70 -60 84 -73 54 -48 311 -253
426 -339 227 -171 549 -380 867 -562 204 -117 734 -374 838 -406 14 -4 43 -16
65 -26 147 -67 502 -190 840 -289 34 -10 256 -68 289 -75 11 -2 41 -9 66 -15
45 -12 351 -75 406 -84 39 -7 210 -34 254 -40 19 -2 58 -8 85 -11 28 -4 61 -9
75 -11 14 -2 52 -6 85 -10 33 -3 71 -8 84 -10 13 -2 65 -6 115 -9 50 -4 107
-8 126 -11 191 -22 1043 -22 1180 0 14 3 61 7 105 11 44 3 96 7 115 10 19 2
60 7 90 9 93 10 401 53 510 72 70 12 93 16 190 35 661 130 1381 378 1995 686
150 75 342 176 385 203 8 5 74 44 145 86 276 163 705 464 973 683 240 195 639
574 837 795 44 49 85 94 90 100 30 32 221 264 286 346 163 205 519 720 519
749 0 6 5 11 10 11 6 0 10 4 10 10 0 5 19 40 42 77 22 38 50 84 61 103 343
602 603 1225 781 1867 57 205 150 607 162 698 2 17 8 53 14 80 5 28 12 64 14
80 8 53 18 119 22 140 2 11 6 39 9 62 3 24 9 73 14 110 8 58 15 112 24 208 2
20 -4 20 -785 21 -715 1 -788 0 -792 -15 -3 -9 -7 -38 -11 -66 -6 -51 -10 -80
-21 -137 -3 -18 -7 -42 -9 -53 -26 -188 -126 -592 -210 -855 -294 -919 -830
-1815 -1500 -2508 -234 -242 -472 -461 -665 -611 -47 -36 -87 -68 -90 -71 -3
-3 -49 -38 -104 -79 -151 -112 -364 -253 -541 -357 -88 -52 -171 -101 -185
-110 -46 -27 -455 -230 -497 -247 -23 -9 -61 -25 -85 -36 -162 -75 -664 -251
-815 -286 -10 -2 -52 -13 -93 -25 -133 -36 -448 -102 -552 -116 -16 -2 -56 -8
-90 -14 -35 -5 -88 -12 -118 -15 -30 -4 -61 -8 -68 -10 -7 -3 -45 -7 -85 -10
-40 -4 -77 -8 -83 -10 -56 -18 -763 -26 -969 -12 -143 11 -225 17 -265 22 -19
2 -62 7 -95 10 -33 3 -71 8 -85 11 -14 2 -45 7 -70 10 -96 12 -201 30 -349 60
-69 14 -133 27 -141 29 -8 2 -35 8 -60 15 -25 7 -54 14 -65 16 -32 6 -56 12
-130 33 -38 10 -104 28 -146 40 -101 27 -462 151 -473 162 -6 5 -16 9 -22 9
-27 0 -341 137 -539 235 -228 113 -361 186 -540 295 -70 43 -358 236 -405 272
-268 205 -393 306 -505 408 -439 399 -763 770 -1066 1220 -114 168 -237 369
-302 489 -22 42 -61 114 -86 161 -96 176 -250 527 -334 760 -77 214 -183 560
-201 660 -2 14 -12 52 -20 85 -15 55 -75 370 -91 475 -4 25 -9 52 -10 60 -2 8
-6 44 -10 80 -4 36 -8 67 -10 70 -1 3 -6 43 -10 90 -4 47 -8 99 -10 115 -4 33
-15 195 -20 315 -5 107 -5 544 0 615 14 199 20 270 30 350 19 152 31 240 41
295 2 14 7 41 10 60 52 345 171 781 321 1184 149 403 384 867 624 1236 52 80
102 156 112 170 70 96 171 235 178 244 5 6 39 49 76 96 55 70 130 160 188 226
141 161 394 421 535 549 90 82 275 236 395 329 55 43 107 83 115 89 19 16 221
159 242 172 9 6 69 44 134 86 322 206 727 415 1059 545 50 20 99 40 110 45
166 73 797 256 1018 294 12 2 85 15 162 29 252 44 348 56 660 83 50 4 248 8
440 8 305 0 428 -4 575 -20 19 -2 64 -7 100 -10 61 -6 289 -38 362 -50 134
-24 315 -62 433 -91 77 -20 149 -37 160 -40 27 -5 239 -66 355 -102 104 -32
235 -78 338 -118 37 -14 108 -42 157 -61 118 -46 211 -86 313 -134 46 -21 85
-39 87 -39 2 0 65 -29 140 -65 76 -36 141 -65 145 -65 4 0 279 271 610 602
593 592 602 602 580 618 -49 33 -540 286 -685 352 -251 115 -309 140 -501 217
-417 167 -788 287 -1199 390 -235 58 -615 133 -790 156 -22 3 -55 7 -73 10
-59 8 -106 14 -162 20 -30 3 -71 8 -90 10 -52 6 -238 22 -360 32 -75 5 -826
13 -832 9z"/>
<path d="M14860 11753 c-63 -35 -148 -83 -188 -105 -41 -21 -88 -48 -105 -58
-18 -11 -48 -27 -67 -37 -19 -10 -75 -40 -125 -68 -49 -28 -124 -69 -165 -92
-74 -40 -623 -342 -690 -380 -19 -11 -64 -36 -100 -55 -131 -72 -172 -95 -545
-301 -209 -115 -405 -223 -435 -240 -30 -16 -93 -51 -140 -77 -47 -26 -110
-61 -140 -77 -30 -17 -118 -65 -195 -108 -77 -43 -162 -90 -190 -105 -79 -44
-537 -296 -674 -372 -68 -37 -128 -68 -132 -68 -4 0 -9 -3 -11 -7 -2 -5 -18
-16 -36 -25 -63 -33 -188 -102 -266 -145 -43 -25 -113 -63 -155 -85 -42 -22
-80 -43 -86 -47 -5 -5 -44 -26 -85 -48 -167 -90 -557 -307 -592 -329 -21 -13
-38 -21 -38 -18 0 4 -6 2 -12 -4 -13 -10 -214 -123 -323 -181 -33 -18 -74 -41
-91 -51 -17 -10 -62 -35 -100 -55 -189 -102 -221 -120 -246 -137 -16 -11 -28
-16 -28 -12 0 4 -8 0 -17 -8 -10 -8 -47 -31 -83 -50 -82 -45 -176 -96 -217
-119 -18 -10 -63 -35 -100 -55 -37 -21 -102 -56 -143 -79 -41 -23 -102 -57
-135 -74 -33 -18 -67 -36 -75 -42 -8 -5 -73 -41 -145 -80 -71 -39 -152 -84
-180 -99 -27 -15 -93 -51 -145 -80 -52 -29 -117 -65 -145 -80 -654 -362 -814
-450 -820 -450 -2 0 -25 37 -50 83 -25 45 -54 96 -64 112 -33 54 -193 329
-219 375 -14 25 -44 78 -68 117 -24 40 -44 77 -44 83 0 5 -4 10 -10 10 -5 0
-10 4 -10 9 0 5 -142 254 -316 553 -174 298 -326 560 -338 581 -11 21 -30 53
-41 71 -20 35 -135 231 -168 289 -11 18 -98 168 -195 335 -98 167 -193 332
-212 367 -19 35 -41 70 -48 77 -6 6 -12 15 -12 20 0 4 -25 49 -55 100 -31 51
-59 100 -64 108 -5 8 -14 14 -19 13 -6 -1 -70 -38 -144 -81 -73 -43 -153 -90
-178 -104 -177 -101 -737 -429 -747 -438 -7 -5 -15 -10 -18 -10 -6 0 -165 -91
-165 -95 0 -3 122 -215 191 -333 27 -45 49 -85 49 -88 0 -3 8 -18 19 -32 10
-15 29 -45 41 -67 12 -22 169 -292 348 -600 179 -308 335 -577 346 -597 61
-109 1047 -1805 1056 -1815 5 -7 10 -14 10 -16 0 -3 46 -83 101 -178 56 -96
115 -199 132 -229 16 -30 38 -66 47 -80 10 -14 34 -56 55 -95 21 -38 43 -77
50 -85 7 -8 14 -20 16 -25 9 -26 192 -335 198 -335 3 0 20 9 37 19 18 11 67
38 110 62 44 23 144 78 224 122 80 44 170 93 200 110 147 80 216 119 230 127
8 6 22 13 30 17 8 4 48 26 88 50 41 24 76 43 78 43 2 0 59 31 127 68 129 73
192 108 322 179 44 24 87 48 95 53 17 11 333 185 429 237 35 19 78 44 95 54
17 10 38 22 46 26 8 4 150 82 315 173 165 92 331 183 368 204 37 20 82 45 100
55 18 10 57 31 87 48 109 60 236 131 270 150 19 11 64 36 100 55 36 20 121 67
190 106 69 38 251 139 405 224 154 86 300 167 325 180 59 33 330 183 400 221
30 17 73 41 95 53 22 12 56 31 75 42 19 11 93 51 164 91 70 39 130 71 132 71
3 0 21 11 42 23 20 13 73 43 117 67 44 24 114 62 155 85 86 48 106 60 445 246
138 76 255 142 260 146 6 4 35 20 65 36 30 15 73 38 95 51 22 12 65 36 95 53
30 17 179 99 330 183 151 84 298 165 325 180 28 15 172 95 320 177 149 82 295
163 325 180 30 16 138 76 240 133 102 57 219 121 260 143 41 22 80 44 87 49 7
5 27 17 45 27 41 22 105 56 453 249 154 86 294 163 310 172 17 9 75 42 130 72
154 86 226 126 272 150 23 11 41 24 39 27 -4 6 -555 977 -608 1071 -14 25 -47
82 -72 128 -26 45 -50 82 -54 81 -4 0 -59 -30 -122 -66z"/>
</g>
</svg>
