<?xml version="1.0" encoding="UTF-8"?>
<svg width="496px" height="376px" viewBox="0 0 496 376" version="1.1" xmlns="http://www.w3.org/2000/svg" xmlns:xlink="http://www.w3.org/1999/xlink">
    <title>Artboard</title>
    <defs>
        <linearGradient x1="100%" y1="50%" x2="0%" y2="50%" id="linearGradient-1">
            <stop stop-color="#124665" offset="0%"></stop>
            <stop stop-color="#8033B0" offset="100%"></stop>
        </linearGradient>
    </defs>
    <g id="Artboard" stroke="none" stroke-width="1" fill="none" fill-rule="evenodd">
        <path d="M17.989418,207.22635 C23.2169312,201.993644 31.0582011,201.993644 36.2857143,207.22635 C75.3483342,243.831941 111.940927,280.460886 146.063492,317.113185 C351.679012,112.165517 456.229277,7.9474471 459.714286,4.45897615 C463.656984,0.512361272 474.089947,-0.773730273 479.31746,4.45897615 L491.079365,17.5407422 C496.306878,22.7734486 496.306878,30.6225083 491.079365,35.8552147 L156.518519,372.056603 C152.597884,375.981132 140.835979,375.981132 136.915344,372.056603 C52.4038801,286.589064 8.40564374,242.11106 4.92063492,238.622589 C-0.306878307,233.389882 -0.306878307,225.540823 4.92063492,220.308116 L17.989418,207.22635 Z" id="Path" stroke="#75B7DD" fill="url(#linearGradient-1)"></path>
    </g>
</svg>